<svg width="70" height="70" viewBox="0 0 70 70" fill="none" xmlns="http://www.w3.org/2000/svg">
<rect x="5" y="5" width="60" height="60" rx="30" fill="url(#paint0_linear_3_278)"/>
<g filter="url(#filter0_f_3_278)">
<rect x="5.77905" y="5.77917" width="58.4416" height="58.4416" rx="29.2208" fill="url(#paint1_linear_3_278)"/>
<rect x="6.02905" y="6.02917" width="57.9416" height="57.9416" rx="28.9708" stroke="url(#paint2_linear_3_278)" stroke-width="0.5"/>
</g>
<g filter="url(#filter1_f_3_278)">
<path d="M51.7532 23.3564C50.3926 23.9596 48.9282 24.3665 47.3917 24.5486C48.9605 23.6119 50.1634 22.1282 50.7307 20.3582C49.2633 21.2267 47.6389 21.8569 45.9086 22.1971C44.5239 20.7254 42.5501 19.8052 40.366 19.8052C36.1728 19.8052 32.773 23.196 32.773 27.379C32.773 27.9717 32.8399 28.5495 32.9699 29.1048C26.6587 28.7885 21.0627 25.7739 17.3173 21.1915C16.6637 22.3095 16.2895 23.6104 16.2895 24.9998C16.2895 27.627 17.6299 29.9456 19.6675 31.3034C18.4233 31.2637 17.2519 30.9227 16.2279 30.3555C16.2271 30.3869 16.2271 30.4192 16.2271 30.4514C16.2271 34.1203 18.8448 37.1807 22.3189 37.8776C21.6818 38.0499 21.0109 38.1428 20.3181 38.1428C19.8283 38.1428 19.3527 38.0956 18.8891 38.0065C19.8561 41.0151 22.6601 43.2055 25.9825 43.2662C23.3836 45.2978 20.11 46.5087 16.5517 46.5087C15.9394 46.5087 15.3345 46.4728 14.7402 46.4023C18.1017 48.5522 22.0928 49.8052 26.3807 49.8052C40.3487 49.8052 47.986 38.265 47.986 28.2565C47.986 27.9283 47.9793 27.6008 47.965 27.2756C49.4481 26.21 50.7359 24.8754 51.7532 23.3564Z" fill="#13488C" fill-opacity="0.5"/>
</g>
<path d="M44.2622 20.0552C46.3747 20.0552 48.2833 20.9453 49.6226 22.3687L49.7173 22.4692L49.853 22.4429C51.3797 22.1427 52.8244 21.6187 54.1548 20.9087C53.5442 22.3424 52.488 23.5413 51.1597 24.3345L51.3169 24.7974C52.5806 24.6476 53.7956 24.3445 54.9468 23.9106C54.0348 25.119 52.9436 26.1903 51.7153 27.0728L51.605 27.1519L51.6108 27.2866C51.6249 27.6079 51.6323 27.9316 51.6323 28.2563C51.6323 38.1566 44.0786 49.5551 30.2769 49.5552C26.4177 49.5552 22.8035 48.5257 19.6792 46.7378C19.934 46.7502 20.1902 46.7583 20.4478 46.7583C24.0638 46.7583 27.3914 45.5281 30.0327 43.4634L30.5874 43.0288L29.8833 43.0161C26.8158 42.9601 24.2054 41.0266 23.1616 38.3198C23.5057 38.3667 23.8563 38.3931 24.2144 38.3931C24.9293 38.393 25.6219 38.2966 26.2798 38.1187L26.2642 37.6323C23.0045 36.9784 20.5248 34.1733 20.3794 30.7681C21.3441 31.2365 22.42 31.5169 23.5552 31.5532L24.4312 31.5815L23.7017 31.0952C21.7309 29.7817 20.4351 27.5395 20.4351 24.9995C20.4351 23.7837 20.732 22.6388 21.2563 21.6313C25.0418 26.1072 30.5996 29.0406 36.853 29.354L37.1851 29.3706L37.1089 29.0474C36.9835 28.5114 36.9195 27.953 36.9194 27.3794C36.9194 23.3351 40.2065 20.0552 44.2622 20.0552Z" fill="white" fill-opacity="0.9" stroke="url(#paint3_linear_3_278)" stroke-width="0.5"/>
<defs>
<filter id="filter0_f_3_278" x="0.779053" y="0.779175" width="68.4417" height="68.4415" filterUnits="userSpaceOnUse" color-interpolation-filters="sRGB">
<feFlood flood-opacity="0" result="BackgroundImageFix"/>
<feBlend mode="normal" in="SourceGraphic" in2="BackgroundImageFix" result="shape"/>
<feGaussianBlur stdDeviation="2.5" result="effect1_foregroundBlur_3_278"/>
</filter>
<filter id="filter1_f_3_278" x="9.74023" y="14.8052" width="47.0129" height="40" filterUnits="userSpaceOnUse" color-interpolation-filters="sRGB">
<feFlood flood-opacity="0" result="BackgroundImageFix"/>
<feBlend mode="normal" in="SourceGraphic" in2="BackgroundImageFix" result="shape"/>
<feGaussianBlur stdDeviation="2.5" result="effect1_foregroundBlur_3_278"/>
</filter>
<linearGradient id="paint0_linear_3_278" x1="33.8312" y1="63.4416" x2="35" y2="8.31169" gradientUnits="userSpaceOnUse">
<stop stop-color="#0065A3"/>
<stop offset="0.869762" stop-color="#58C0FF"/>
</linearGradient>
<linearGradient id="paint1_linear_3_278" x1="34.9998" y1="12.2077" x2="34.9998" y2="57.7922" gradientUnits="userSpaceOnUse">
<stop stop-color="#1DA1F2"/>
<stop offset="1" stop-color="#1DA1F2" stop-opacity="0.6"/>
</linearGradient>
<linearGradient id="paint2_linear_3_278" x1="34.9998" y1="5.77917" x2="34.9998" y2="64.2207" gradientUnits="userSpaceOnUse">
<stop stop-color="#1DA1F2"/>
<stop offset="1" stop-color="#046EAE"/>
</linearGradient>
<linearGradient id="paint3_linear_3_278" x1="37.1427" y1="19.8052" x2="37.1427" y2="49.8052" gradientUnits="userSpaceOnUse">
<stop stop-color="white"/>
<stop offset="1" stop-color="white" stop-opacity="0"/>
</linearGradient>
</defs>
</svg>
