<svg width="70" height="70" viewBox="0 0 70 70" fill="none" xmlns="http://www.w3.org/2000/svg">
<rect x="5" y="5" width="60" height="60" rx="30" fill="url(#paint0_linear_3_300)"/>
<g filter="url(#filter0_f_3_300)">
<rect x="5.7793" y="5.77917" width="58.4416" height="58.4416" rx="29.2208" fill="url(#paint1_linear_3_300)"/>
<rect x="6.0293" y="6.02917" width="57.9416" height="57.9416" rx="28.9708" stroke="url(#paint2_linear_3_300)" stroke-width="0.5"/>
</g>
<g filter="url(#filter1_f_3_300)">
<path d="M49.8438 27.9846C49.4361 26.4519 48.2348 25.245 46.7093 24.8354C43.9441 24.0909 32.8572 24.0909 32.8572 24.0909C32.8572 24.0909 21.7702 24.0909 19.005 24.8354C17.4798 25.245 16.2783 26.4519 15.8706 27.9846C15.1299 30.7625 15.1299 36.5587 15.1299 36.5587C15.1299 36.5587 15.1299 42.3547 15.8706 45.1323C16.2783 46.665 17.4798 47.8723 19.005 48.2818C21.7702 49.026 32.8572 49.026 32.8572 49.026C32.8572 49.026 43.9441 49.026 46.7093 48.2818C48.2348 47.8723 49.4361 46.665 49.8438 45.1323C50.5844 42.3547 50.5844 36.5587 50.5844 36.5587C50.5844 36.5587 50.5844 30.7625 49.8438 27.9846ZM29.3115 41.902V31.2153L38.5227 36.5587L29.3115 41.902Z" fill="#9B0000"/>
</g>
<path d="M34.9294 22.7825C35.0111 22.7827 35.1318 22.7827 35.2859 22.7834C35.594 22.7849 36.0373 22.7884 36.5779 22.7942C37.6595 22.8058 39.1306 22.8288 40.6873 22.8752C42.2442 22.9217 43.8854 22.9916 45.3083 23.0959C46.7384 23.2008 47.9274 23.3388 48.5925 23.5178V23.5188C49.9413 23.881 51.0226 24.9043 51.4695 26.2229L51.5505 26.4905C51.9133 27.8512 52.0976 29.9707 52.1902 31.7678C52.2363 32.6626 52.2597 33.471 52.2712 34.0559C52.277 34.3483 52.2796 34.5852 52.281 34.7483C52.2817 34.8297 52.2818 34.8931 52.282 34.9358V35.0647C52.2818 35.1074 52.2817 35.1708 52.281 35.2522C52.2796 35.4153 52.277 35.6522 52.2712 35.9446C52.2597 36.5294 52.2363 37.338 52.1902 38.2327C52.0976 40.0295 51.9132 42.1485 51.5505 43.509V43.51C51.1657 44.9566 50.0311 46.0954 48.5925 46.4817C47.9274 46.6607 46.7384 46.7998 45.3083 46.9045C43.8854 47.0088 42.2442 47.0778 40.6873 47.1243C39.1306 47.1707 37.6595 47.1947 36.5779 47.2063C36.0373 47.2121 35.594 47.2146 35.2859 47.2161C35.1318 47.2168 35.0111 47.2169 34.9294 47.217C34.8888 47.2171 34.8576 47.217 34.8367 47.217C34.8263 47.2171 34.8185 47.218 34.8132 47.218H34.7976C34.7923 47.218 34.7837 47.2171 34.7732 47.217C34.7522 47.217 34.721 47.2171 34.6804 47.217C34.5988 47.2169 34.4787 47.2168 34.325 47.2161C34.0168 47.2146 33.5727 47.2121 33.032 47.2063C31.9505 47.1947 30.48 47.1707 28.9236 47.1243C27.3666 47.0778 25.7256 47.0088 24.3025 46.9045C22.8725 46.7998 21.6836 46.6607 21.0183 46.4817C19.58 46.0955 18.4452 44.9565 18.0603 43.51V43.509C17.6975 42.1485 17.5123 40.0296 17.4197 38.2327C17.3736 37.338 17.3511 36.5294 17.3396 35.9446C17.3338 35.6522 17.3303 35.4153 17.3289 35.2522C17.3281 35.1708 17.3281 35.1074 17.3279 35.0647V34.9358C17.3281 34.8931 17.3281 34.8297 17.3289 34.7483C17.3303 34.5852 17.3338 34.3483 17.3396 34.0559C17.3511 33.471 17.3736 32.6625 17.4197 31.7678C17.5065 30.083 17.6743 28.1147 17.9939 26.7542L18.0603 26.4905C18.4451 25.0438 19.5798 23.9051 21.0183 23.5188V23.5178C21.6836 23.3388 22.8726 23.2008 24.3025 23.0959C25.7256 22.9916 27.3666 22.9217 28.9236 22.8752C30.48 22.8288 31.9505 22.8058 33.032 22.7942C33.5727 22.7884 34.0168 22.7849 34.325 22.7834C34.4787 22.7827 34.5988 22.7827 34.6804 22.7825H34.9294ZM31.0095 40.7776L31.3845 40.5598L40.5964 35.2161L40.9685 35.0002L40.5964 34.7844L31.3845 29.4407L31.0095 29.2229V40.7776Z" fill="white" fill-opacity="0.9" stroke="url(#paint3_linear_3_300)" stroke-width="0.5"/>
<defs>
<filter id="filter0_f_3_300" x="0.779297" y="0.779175" width="68.4417" height="68.4415" filterUnits="userSpaceOnUse" color-interpolation-filters="sRGB">
<feFlood flood-opacity="0" result="BackgroundImageFix"/>
<feBlend mode="normal" in="SourceGraphic" in2="BackgroundImageFix" result="shape"/>
<feGaussianBlur stdDeviation="2.5" result="effect1_foregroundBlur_3_300"/>
</filter>
<filter id="filter1_f_3_300" x="5.12988" y="14.0909" width="55.4546" height="44.9351" filterUnits="userSpaceOnUse" color-interpolation-filters="sRGB">
<feFlood flood-opacity="0" result="BackgroundImageFix"/>
<feBlend mode="normal" in="SourceGraphic" in2="BackgroundImageFix" result="shape"/>
<feGaussianBlur stdDeviation="5" result="effect1_foregroundBlur_3_300"/>
</filter>
<linearGradient id="paint0_linear_3_300" x1="33.8312" y1="63.4416" x2="35" y2="8.31169" gradientUnits="userSpaceOnUse">
<stop stop-color="#A70000"/>
<stop offset="1" stop-color="#FF9191"/>
</linearGradient>
<linearGradient id="paint1_linear_3_300" x1="35.0001" y1="12.2077" x2="35.0001" y2="57.7922" gradientUnits="userSpaceOnUse">
<stop stop-color="#FF0000" stop-opacity="0.67"/>
<stop offset="1" stop-color="#FF0000"/>
</linearGradient>
<linearGradient id="paint2_linear_3_300" x1="35.0001" y1="5.77917" x2="35.0001" y2="64.2207" gradientUnits="userSpaceOnUse">
<stop stop-color="#FF8888"/>
<stop offset="1" stop-color="#D60000"/>
</linearGradient>
<linearGradient id="paint3_linear_3_300" x1="34.8052" y1="22.5325" x2="34.8052" y2="47.4675" gradientUnits="userSpaceOnUse">
<stop stop-color="white"/>
<stop offset="1" stop-color="white" stop-opacity="0"/>
</linearGradient>
</defs>
</svg>
