<svg width="44" height="44" viewBox="0 0 44 44" fill="none" xmlns="http://www.w3.org/2000/svg">
<g clip-path="url(#clip0_2415_629)">
<path d="M14.6667 22H7.33333C6.32081 22 5.5 22.8208 5.5 23.8333V34.8333C5.5 35.8459 6.32081 36.6667 7.33333 36.6667H14.6667C15.6792 36.6667 16.5 35.8459 16.5 34.8333V23.8333C16.5 22.8208 15.6792 22 14.6667 22Z" stroke="url(#paint0_linear_2415_629)" stroke-width="2.75" stroke-linecap="round" stroke-linejoin="round"/>
<path d="M25.6667 14.6666H18.3333C17.3208 14.6666 16.5 15.4874 16.5 16.5V34.8333C16.5 35.8458 17.3208 36.6666 18.3333 36.6666H25.6667C26.6792 36.6666 27.5 35.8458 27.5 34.8333V16.5C27.5 15.4874 26.6792 14.6666 25.6667 14.6666Z" stroke="url(#paint1_linear_2415_629)" stroke-width="2.75" stroke-linecap="round" stroke-linejoin="round"/>
<path d="M36.6667 7.33337H29.3333C28.3208 7.33337 27.5 8.15419 27.5 9.16671V34.8334C27.5 35.8459 28.3208 36.6667 29.3333 36.6667H36.6667C37.6792 36.6667 38.5 35.8459 38.5 34.8334V9.16671C38.5 8.15419 37.6792 7.33337 36.6667 7.33337Z" stroke="url(#paint2_linear_2415_629)" stroke-width="2.75" stroke-linecap="round" stroke-linejoin="round"/>
<path d="M7.33325 36.6666H32.9999" stroke="url(#paint3_linear_2415_629)" stroke-width="2.75" stroke-linecap="round" stroke-linejoin="round"/>
</g>
<defs>
<linearGradient id="paint0_linear_2415_629" x1="11" y1="22" x2="5.5" y2="22" gradientUnits="userSpaceOnUse">
<stop stop-color="#22D3EE"/>
<stop offset="1" stop-color="#0EA5E9"/>
</linearGradient>
<linearGradient id="paint1_linear_2415_629" x1="22" y1="14.6666" x2="16.5" y2="14.6666" gradientUnits="userSpaceOnUse">
<stop stop-color="#22D3EE"/>
<stop offset="1" stop-color="#0EA5E9"/>
</linearGradient>
<linearGradient id="paint2_linear_2415_629" x1="33" y1="7.33337" x2="27.5" y2="7.33337" gradientUnits="userSpaceOnUse">
<stop stop-color="#22D3EE"/>
<stop offset="1" stop-color="#0EA5E9"/>
</linearGradient>
<linearGradient id="paint3_linear_2415_629" x1="20.1666" y1="36.6666" x2="7.33325" y2="36.6666" gradientUnits="userSpaceOnUse">
<stop stop-color="#22D3EE"/>
<stop offset="1" stop-color="#0EA5E9"/>
</linearGradient>
<clipPath id="clip0_2415_629">
<rect width="44" height="44" fill="white"/>
</clipPath>
</defs>
</svg>
