<svg width="206" height="44" viewBox="0 0 206 44" fill="none" xmlns="http://www.w3.org/2000/svg">
<path d="M17.8965 25.5312L21.2461 14.2812H24.5078L19.5566 28.5H17.4082L17.8965 25.5312ZM14.8105 14.2812L18.1504 25.5312L18.6582 28.5H16.4902L11.5684 14.2812H14.8105ZM28.6289 17.9336V28.5H25.8066V17.9336H28.6289ZM25.6309 15.1797C25.6309 14.7695 25.7741 14.431 26.0605 14.1641C26.347 13.8971 26.7311 13.7637 27.2129 13.7637C27.6882 13.7637 28.069 13.8971 28.3555 14.1641C28.6484 14.431 28.7949 14.7695 28.7949 15.1797C28.7949 15.5898 28.6484 15.9284 28.3555 16.1953C28.069 16.4622 27.6882 16.5957 27.2129 16.5957C26.7311 16.5957 26.347 16.4622 26.0605 16.1953C25.7741 15.9284 25.6309 15.5898 25.6309 15.1797ZM35.8164 28.6953C34.9961 28.6953 34.2604 28.5651 33.6094 28.3047C32.9583 28.0378 32.4049 27.6699 31.9492 27.2012C31.5 26.7324 31.1549 26.1888 30.9141 25.5703C30.6732 24.9453 30.5527 24.2812 30.5527 23.5781V23.1875C30.5527 22.3867 30.6667 21.6543 30.8945 20.9902C31.1224 20.3262 31.4479 19.75 31.8711 19.2617C32.3008 18.7734 32.8216 18.3991 33.4336 18.1387C34.0456 17.8717 34.7357 17.7383 35.5039 17.7383C36.2526 17.7383 36.9167 17.862 37.4961 18.1094C38.0755 18.3568 38.5605 18.7083 38.9512 19.1641C39.3483 19.6198 39.6478 20.1667 39.8496 20.8047C40.0514 21.4362 40.1523 22.1393 40.1523 22.9141V24.0859H31.7539V22.2109H37.3887V21.9961C37.3887 21.6055 37.3171 21.2572 37.1738 20.9512C37.0371 20.6387 36.8288 20.3913 36.5488 20.209C36.2689 20.0267 35.9108 19.9355 35.4746 19.9355C35.1035 19.9355 34.7845 20.0169 34.5176 20.1797C34.2507 20.3424 34.0326 20.5703 33.8633 20.8633C33.7005 21.1562 33.5768 21.5013 33.4922 21.8984C33.4141 22.2891 33.375 22.7188 33.375 23.1875V23.5781C33.375 24.0013 33.4336 24.3919 33.5508 24.75C33.6745 25.1081 33.847 25.4173 34.0684 25.6777C34.2962 25.9382 34.5697 26.14 34.8887 26.2832C35.2142 26.4264 35.582 26.498 35.9922 26.498C36.5 26.498 36.972 26.4004 37.4082 26.2051C37.8509 26.0033 38.2318 25.7005 38.5508 25.2969L39.918 26.7812C39.6966 27.1003 39.3939 27.4062 39.0098 27.6992C38.6322 27.9922 38.1764 28.2331 37.6426 28.4219C37.1087 28.6042 36.5 28.6953 35.8164 28.6953ZM44.7715 25.7656L46.9688 17.9336H48.7559L48.1797 21.0098L45.9824 28.5H44.4883L44.7715 25.7656ZM43.6582 17.9336L45.2305 25.7559L45.377 28.5H43.6191L40.9434 17.9336H43.6582ZM50.7676 25.6289L52.3008 17.9336H55.0254L52.3496 28.5H50.6016L50.7676 25.6289ZM49 17.9336L51.1875 25.707L51.4902 28.5H49.9863L47.7891 21.0195L47.2324 17.9336H49ZM67.125 26.1172V21.4102C67.125 21.0716 67.0697 20.7819 66.959 20.541C66.8483 20.2936 66.6758 20.1016 66.4414 19.9648C66.2135 19.8281 65.9173 19.7598 65.5527 19.7598C65.2402 19.7598 64.9701 19.8151 64.7422 19.9258C64.5143 20.0299 64.3385 20.1829 64.2148 20.3848C64.0911 20.5801 64.0293 20.8112 64.0293 21.0781H61.2168C61.2168 20.6289 61.321 20.2025 61.5293 19.7988C61.7376 19.3952 62.0404 19.0404 62.4375 18.7344C62.8346 18.4219 63.3066 18.1777 63.8535 18.002C64.4069 17.8262 65.0254 17.7383 65.709 17.7383C66.5293 17.7383 67.2585 17.875 67.8965 18.1484C68.5345 18.4219 69.0358 18.832 69.4004 19.3789C69.7715 19.9258 69.957 20.6094 69.957 21.4297V25.9512C69.957 26.5306 69.9928 27.0059 70.0645 27.377C70.1361 27.7415 70.2402 28.0605 70.377 28.334V28.5H67.5352C67.3984 28.2135 67.2943 27.8555 67.2227 27.4258C67.1576 26.9896 67.125 26.5534 67.125 26.1172ZM67.4961 22.0645L67.5156 23.6562H65.9434C65.5723 23.6562 65.25 23.6986 64.9766 23.7832C64.7031 23.8678 64.4785 23.9883 64.3027 24.1445C64.127 24.2943 63.9967 24.4701 63.9121 24.6719C63.834 24.8737 63.7949 25.0951 63.7949 25.3359C63.7949 25.5768 63.8503 25.7949 63.9609 25.9902C64.0716 26.179 64.2311 26.3288 64.4395 26.4395C64.6478 26.5436 64.8919 26.5957 65.1719 26.5957C65.5951 26.5957 65.9629 26.5111 66.2754 26.3418C66.5879 26.1725 66.8288 25.9642 66.998 25.7168C67.1738 25.4694 67.265 25.235 67.2715 25.0137L68.0137 26.2051C67.9095 26.472 67.7663 26.7487 67.584 27.0352C67.4082 27.3216 67.1836 27.5918 66.9102 27.8457C66.6367 28.0931 66.3079 28.2982 65.9238 28.4609C65.5397 28.6172 65.084 28.6953 64.5566 28.6953C63.8861 28.6953 63.2773 28.5618 62.7305 28.2949C62.1901 28.0215 61.7604 27.6471 61.4414 27.1719C61.1289 26.6901 60.9727 26.1432 60.9727 25.5312C60.9727 24.9779 61.0768 24.4863 61.2852 24.0566C61.4935 23.627 61.7995 23.2656 62.2031 22.9727C62.6133 22.6732 63.1243 22.4486 63.7363 22.2988C64.3483 22.1426 65.0579 22.0645 65.8652 22.0645H67.4961ZM75.0938 13.5V28.5H72.2715V13.5H75.0938ZM80.3867 13.5V28.5H77.5645V13.5H80.3867ZM93.4043 23.4316H89.7812V21.1465H93.4043C93.9642 21.1465 94.4199 21.0553 94.7715 20.873C95.123 20.6842 95.3802 20.4238 95.543 20.0918C95.7057 19.7598 95.7871 19.3854 95.7871 18.9688C95.7871 18.5456 95.7057 18.1517 95.543 17.7871C95.3802 17.4225 95.123 17.1296 94.7715 16.9082C94.4199 16.6868 93.9642 16.5762 93.4043 16.5762H90.7969V28.5H87.8672V14.2812H93.4043C94.5176 14.2812 95.4714 14.4831 96.2656 14.8867C97.0664 15.2839 97.6784 15.834 98.1016 16.5371C98.5247 17.2402 98.7363 18.0443 98.7363 18.9492C98.7363 19.8672 98.5247 20.6615 98.1016 21.332C97.6784 22.0026 97.0664 22.5202 96.2656 22.8848C95.4714 23.2493 94.5176 23.4316 93.4043 23.4316ZM99.9961 23.3242V23.1191C99.9961 22.3444 100.107 21.6315 100.328 20.9805C100.549 20.3229 100.872 19.7533 101.295 19.2715C101.718 18.7897 102.239 18.4154 102.857 18.1484C103.476 17.875 104.186 17.7383 104.986 17.7383C105.787 17.7383 106.5 17.875 107.125 18.1484C107.75 18.4154 108.274 18.7897 108.697 19.2715C109.127 19.7533 109.452 20.3229 109.674 20.9805C109.895 21.6315 110.006 22.3444 110.006 23.1191V23.3242C110.006 24.0924 109.895 24.8053 109.674 25.4629C109.452 26.1139 109.127 26.6836 108.697 27.1719C108.274 27.6536 107.753 28.028 107.135 28.2949C106.516 28.5618 105.807 28.6953 105.006 28.6953C104.205 28.6953 103.492 28.5618 102.867 28.2949C102.249 28.028 101.725 27.6536 101.295 27.1719C100.872 26.6836 100.549 26.1139 100.328 25.4629C100.107 24.8053 99.9961 24.0924 99.9961 23.3242ZM102.809 23.1191V23.3242C102.809 23.7669 102.848 24.1803 102.926 24.5645C103.004 24.9486 103.128 25.2871 103.297 25.5801C103.473 25.8665 103.701 26.0911 103.98 26.2539C104.26 26.4167 104.602 26.498 105.006 26.498C105.396 26.498 105.732 26.4167 106.012 26.2539C106.292 26.0911 106.516 25.8665 106.686 25.5801C106.855 25.2871 106.979 24.9486 107.057 24.5645C107.141 24.1803 107.184 23.7669 107.184 23.3242V23.1191C107.184 22.6895 107.141 22.2858 107.057 21.9082C106.979 21.5241 106.852 21.1855 106.676 20.8926C106.507 20.5931 106.282 20.3587 106.002 20.1895C105.722 20.0202 105.383 19.9355 104.986 19.9355C104.589 19.9355 104.251 20.0202 103.971 20.1895C103.697 20.3587 103.473 20.5931 103.297 20.8926C103.128 21.1855 103.004 21.5241 102.926 21.9082C102.848 22.2858 102.809 22.6895 102.809 23.1191ZM117.447 25.5801C117.447 25.3783 117.389 25.196 117.271 25.0332C117.154 24.8704 116.936 24.7207 116.617 24.584C116.305 24.4408 115.852 24.3105 115.26 24.1934C114.726 24.0762 114.228 23.9297 113.766 23.7539C113.31 23.5716 112.913 23.3535 112.574 23.0996C112.242 22.8457 111.982 22.5462 111.793 22.2012C111.604 21.8496 111.51 21.4492 111.51 21C111.51 20.5573 111.604 20.1406 111.793 19.75C111.988 19.3594 112.265 19.0143 112.623 18.7148C112.988 18.4089 113.43 18.1712 113.951 18.002C114.479 17.8262 115.071 17.7383 115.729 17.7383C116.646 17.7383 117.434 17.8848 118.092 18.1777C118.756 18.4707 119.264 18.8743 119.615 19.3887C119.973 19.8965 120.152 20.4759 120.152 21.127H117.34C117.34 20.8535 117.281 20.6094 117.164 20.3945C117.053 20.1732 116.878 20.0007 116.637 19.877C116.402 19.7467 116.096 19.6816 115.719 19.6816C115.406 19.6816 115.136 19.737 114.908 19.8477C114.68 19.9518 114.505 20.0951 114.381 20.2773C114.264 20.4531 114.205 20.6484 114.205 20.8633C114.205 21.026 114.238 21.1725 114.303 21.3027C114.374 21.4264 114.488 21.5404 114.645 21.6445C114.801 21.7487 115.003 21.8464 115.25 21.9375C115.504 22.0221 115.816 22.1003 116.188 22.1719C116.949 22.3281 117.63 22.5332 118.229 22.7871C118.827 23.0345 119.303 23.373 119.654 23.8027C120.006 24.2259 120.182 24.7826 120.182 25.4727C120.182 25.9414 120.077 26.3711 119.869 26.7617C119.661 27.1523 119.361 27.4941 118.971 27.7871C118.58 28.0736 118.111 28.2982 117.564 28.4609C117.024 28.6172 116.415 28.6953 115.738 28.6953C114.755 28.6953 113.922 28.5195 113.238 28.168C112.561 27.8164 112.047 27.3704 111.695 26.8301C111.35 26.2832 111.178 25.7233 111.178 25.1504H113.844C113.857 25.5345 113.954 25.8438 114.137 26.0781C114.326 26.3125 114.563 26.4818 114.85 26.5859C115.143 26.6901 115.458 26.7422 115.797 26.7422C116.161 26.7422 116.464 26.6934 116.705 26.5957C116.946 26.4915 117.128 26.3548 117.252 26.1855C117.382 26.0098 117.447 25.8079 117.447 25.5801ZM127.184 17.9336V19.9258H121.031V17.9336H127.184ZM122.555 15.3262H125.367V25.3164C125.367 25.6224 125.406 25.8568 125.484 26.0195C125.569 26.1823 125.693 26.2962 125.855 26.3613C126.018 26.4199 126.223 26.4492 126.471 26.4492C126.646 26.4492 126.803 26.4427 126.939 26.4297C127.083 26.4102 127.203 26.3906 127.301 26.3711L127.311 28.4414C127.07 28.5195 126.809 28.5814 126.529 28.627C126.249 28.6725 125.94 28.6953 125.602 28.6953C124.983 28.6953 124.443 28.5944 123.98 28.3926C123.525 28.1842 123.173 27.8522 122.926 27.3965C122.678 26.9408 122.555 26.3418 122.555 25.5996V15.3262ZM134.498 25.5801C134.498 25.3783 134.439 25.196 134.322 25.0332C134.205 24.8704 133.987 24.7207 133.668 24.584C133.355 24.4408 132.903 24.3105 132.311 24.1934C131.777 24.0762 131.279 23.9297 130.816 23.7539C130.361 23.5716 129.964 23.3535 129.625 23.0996C129.293 22.8457 129.033 22.5462 128.844 22.2012C128.655 21.8496 128.561 21.4492 128.561 21C128.561 20.5573 128.655 20.1406 128.844 19.75C129.039 19.3594 129.316 19.0143 129.674 18.7148C130.038 18.4089 130.481 18.1712 131.002 18.002C131.529 17.8262 132.122 17.7383 132.779 17.7383C133.697 17.7383 134.485 17.8848 135.143 18.1777C135.807 18.4707 136.314 18.8743 136.666 19.3887C137.024 19.8965 137.203 20.4759 137.203 21.127H134.391C134.391 20.8535 134.332 20.6094 134.215 20.3945C134.104 20.1732 133.928 20.0007 133.688 19.877C133.453 19.7467 133.147 19.6816 132.77 19.6816C132.457 19.6816 132.187 19.737 131.959 19.8477C131.731 19.9518 131.555 20.0951 131.432 20.2773C131.314 20.4531 131.256 20.6484 131.256 20.8633C131.256 21.026 131.288 21.1725 131.354 21.3027C131.425 21.4264 131.539 21.5404 131.695 21.6445C131.852 21.7487 132.053 21.8464 132.301 21.9375C132.555 22.0221 132.867 22.1003 133.238 22.1719C134 22.3281 134.68 22.5332 135.279 22.7871C135.878 23.0345 136.354 23.373 136.705 23.8027C137.057 24.2259 137.232 24.7826 137.232 25.4727C137.232 25.9414 137.128 26.3711 136.92 26.7617C136.712 27.1523 136.412 27.4941 136.021 27.7871C135.631 28.0736 135.162 28.2982 134.615 28.4609C134.075 28.6172 133.466 28.6953 132.789 28.6953C131.806 28.6953 130.973 28.5195 130.289 28.168C129.612 27.8164 129.098 27.3704 128.746 26.8301C128.401 26.2832 128.229 25.7233 128.229 25.1504H130.895C130.908 25.5345 131.005 25.8438 131.188 26.0781C131.376 26.3125 131.614 26.4818 131.9 26.5859C132.193 26.6901 132.509 26.7422 132.848 26.7422C133.212 26.7422 133.515 26.6934 133.756 26.5957C133.997 26.4915 134.179 26.3548 134.303 26.1855C134.433 26.0098 134.498 25.8079 134.498 25.5801Z" fill="#F8FAFC"/>
<g clip-path="url(#clip0_3_243)">
<path d="M156 22C156 31.1127 163.387 38.5 172.5 38.5C181.613 38.5 189 31.1127 189 22C189 12.8873 181.613 5.5 172.5 5.5C163.387 5.5 156 12.8873 156 22Z" stroke="#F8FAFC" stroke-width="2.75" stroke-linecap="round" stroke-linejoin="round"/>
<path d="M179.833 22L172.5 14.6667" stroke="#F8FAFC" stroke-width="2.75" stroke-linecap="round" stroke-linejoin="round"/>
<path d="M179.833 22L165.167 22" stroke="#F8FAFC" stroke-width="2.75" stroke-linecap="round" stroke-linejoin="round"/>
<path d="M172.5 29.3333L179.833 22" stroke="#F8FAFC" stroke-width="2.75" stroke-linecap="round" stroke-linejoin="round"/>
</g>
<defs>
<clipPath id="clip0_3_243">
<rect width="44" height="44" fill="white" transform="matrix(0 1 -1 0 194.5 0)"/>
</clipPath>
</defs>
</svg>
